<svg width="1480" height="820" viewBox="0 0 1480 820" xmlns="http://www.w3.org/2000/svg">
  <rect width="1480" height="820" fill="#ffffff"/>
  <line x1="72" y1="136" x2="1408" y2="136" stroke="#d1d5db" stroke-width="1"/>
  <style>
    .title { font: 700 42px Arial, Helvetica, sans-serif; fill: #111827; }
    .subtitle { font: 400 20px Arial, Helvetica, sans-serif; fill: #4b5563; }
    .h { font: 700 23px Arial, Helvetica, sans-serif; fill: #111827; }
    .label { font: 600 17px Arial, Helvetica, sans-serif; fill: #111827; }
    .small { font: 400 15px Arial, Helvetica, sans-serif; fill: #4b5563; }
    .tiny { font: 400 12px Arial, Helvetica, sans-serif; fill: #4b5563; }
    .white { fill: #ffffff; }
  </style>
  
  <text x="76" y="82" class="title">ROI Prediction Intervals</text>
  <text x="78" y="122" class="subtitle">Expected ROI with uncertainty bands for risk-aware sponsor decisions</text>
<rect x="108" y="176" width="1240" height="520" rx="22" fill="#ffffff" stroke="#d1d5db"/><line x1="168" y1="226.0" x2="1308" y2="226.0" stroke="#d1d5db" stroke-width="1"/><line x1="168" y1="331.0" x2="1308" y2="331.0" stroke="#d1d5db" stroke-width="1"/><line x1="168" y1="436.0" x2="1308" y2="436.0" stroke="#d1d5db" stroke-width="1"/><line x1="168" y1="541.0" x2="1308" y2="541.0" stroke="#d1d5db" stroke-width="1"/><line x1="168" y1="646.0" x2="1308" y2="646.0" stroke="#d1d5db" stroke-width="1"/><line x1="178.0" y1="328.5" x2="178.0" y2="425.2" stroke="#0072B2" stroke-width="5" opacity=".28"/><circle cx="178.0" cy="377.0" r="5.5" fill="#E69F00"/><line x1="205.1" y1="286.9" x2="205.1" y2="394.7" stroke="#0072B2" stroke-width="5" opacity=".28"/><circle cx="205.1" cy="339.0" r="5.5" fill="#E69F00"/><line x1="232.1" y1="315.3" x2="232.1" y2="415.9" stroke="#0072B2" stroke-width="5" opacity=".28"/><circle cx="232.1" cy="364.3" r="5.5" fill="#E69F00"/><line x1="259.2" y1="403.0" x2="259.2" y2="507.9" stroke="#0072B2" stroke-width="5" opacity=".28"/><circle cx="259.2" cy="454.6" r="5.5" fill="#E69F00"/><line x1="286.3" y1="321.1" x2="286.3" y2="426.7" stroke="#0072B2" stroke-width="5" opacity=".28"/><circle cx="286.3" cy="374.6" r="5.5" fill="#E69F00"/><line x1="313.4" y1="359.3" x2="313.4" y2="457.3" stroke="#0072B2" stroke-width="5" opacity=".28"/><circle cx="313.4" cy="408.5" r="5.5" fill="#E69F00"/><line x1="340.4" y1="519.9" x2="340.4" y2="612.1" stroke="#0072B2" stroke-width="5" opacity=".28"/><circle cx="340.4" cy="566.5" r="5.5" fill="#E69F00"/><line x1="367.5" y1="372.7" x2="367.5" y2="473.8" stroke="#0072B2" stroke-width="5" opacity=".28"/><circle cx="367.5" cy="422.6" r="5.5" fill="#E69F00"/><line x1="394.6" y1="457.3" x2="394.6" y2="551.2" stroke="#0072B2" stroke-width="5" opacity=".28"/><circle cx="394.6" cy="505.5" r="5.5" fill="#E69F00"/><line x1="421.7" y1="280.7" x2="421.7" y2="376.3" stroke="#0072B2" stroke-width="5" opacity=".28"/><circle cx="421.7" cy="328.7" r="5.5" fill="#E69F00"/><line x1="448.7" y1="391.1" x2="448.7" y2="482.1" stroke="#0072B2" stroke-width="5" opacity=".28"/><circle cx="448.7" cy="435.8" r="5.5" fill="#E69F00"/><line x1="475.8" y1="329.4" x2="475.8" y2="430.3" stroke="#0072B2" stroke-width="5" opacity=".28"/><circle cx="475.8" cy="381.3" r="5.5" fill="#E69F00"/><line x1="502.9" y1="531.1" x2="502.9" y2="636.0" stroke="#0072B2" stroke-width="5" opacity=".28"/><circle cx="502.9" cy="583.4" r="5.5" fill="#E69F00"/><line x1="530.0" y1="421.2" x2="530.0" y2="515.1" stroke="#0072B2" stroke-width="5" opacity=".28"/><circle cx="530.0" cy="469.7" r="5.5" fill="#E69F00"/><line x1="557.0" y1="307.4" x2="557.0" y2="408.8" stroke="#0072B2" stroke-width="5" opacity=".28"/><circle cx="557.0" cy="358.6" r="5.5" fill="#E69F00"/><line x1="584.1" y1="300.5" x2="584.1" y2="394.7" stroke="#0072B2" stroke-width="5" opacity=".28"/><circle cx="584.1" cy="350.0" r="5.5" fill="#E69F00"/><line x1="611.2" y1="424.3" x2="611.2" y2="525.1" stroke="#0072B2" stroke-width="5" opacity=".28"/><circle cx="611.2" cy="474.0" r="5.5" fill="#E69F00"/><line x1="638.2" y1="413.1" x2="638.2" y2="509.8" stroke="#0072B2" stroke-width="5" opacity=".28"/><circle cx="638.2" cy="459.9" r="5.5" fill="#E69F00"/><line x1="665.3" y1="287.4" x2="665.3" y2="391.1" stroke="#0072B2" stroke-width="5" opacity=".28"/><circle cx="665.3" cy="340.2" r="5.5" fill="#E69F00"/><line x1="692.4" y1="495.3" x2="692.4" y2="589.9" stroke="#0072B2" stroke-width="5" opacity=".28"/><circle cx="692.4" cy="543.3" r="5.5" fill="#E69F00"/><line x1="719.5" y1="309.6" x2="719.5" y2="410.0" stroke="#0072B2" stroke-width="5" opacity=".28"/><circle cx="719.5" cy="360.0" r="5.5" fill="#E69F00"/><line x1="746.5" y1="298.6" x2="746.5" y2="414.0" stroke="#0072B2" stroke-width="5" opacity=".28"/><circle cx="746.5" cy="355.2" r="5.5" fill="#E69F00"/><line x1="773.6" y1="393.5" x2="773.6" y2="505.5" stroke="#0072B2" stroke-width="5" opacity=".28"/><circle cx="773.6" cy="449.4" r="5.5" fill="#E69F00"/><line x1="800.7" y1="474.7" x2="800.7" y2="580.8" stroke="#0072B2" stroke-width="5" opacity=".28"/><circle cx="800.7" cy="527.0" r="5.5" fill="#E69F00"/><line x1="827.8" y1="334.7" x2="827.8" y2="431.0" stroke="#0072B2" stroke-width="5" opacity=".28"/><circle cx="827.8" cy="383.4" r="5.5" fill="#E69F00"/><line x1="854.8" y1="338.7" x2="854.8" y2="433.1" stroke="#0072B2" stroke-width="5" opacity=".28"/><circle cx="854.8" cy="386.5" r="5.5" fill="#E69F00"/><line x1="881.9" y1="509.4" x2="881.9" y2="612.6" stroke="#0072B2" stroke-width="5" opacity=".28"/><circle cx="881.9" cy="559.1" r="5.5" fill="#E69F00"/><line x1="909.0" y1="381.5" x2="909.0" y2="480.4" stroke="#0072B2" stroke-width="5" opacity=".28"/><circle cx="909.0" cy="432.4" r="5.5" fill="#E69F00"/><line x1="936.0" y1="236.0" x2="936.0" y2="343.0" stroke="#0072B2" stroke-width="5" opacity=".28"/><circle cx="936.0" cy="289.8" r="5.5" fill="#E69F00"/><line x1="963.1" y1="360.7" x2="963.1" y2="469.0" stroke="#0072B2" stroke-width="5" opacity=".28"/><circle cx="963.1" cy="415.9" r="5.5" fill="#E69F00"/><line x1="990.2" y1="395.6" x2="990.2" y2="498.4" stroke="#0072B2" stroke-width="5" opacity=".28"/><circle cx="990.2" cy="446.0" r="5.5" fill="#E69F00"/><line x1="1017.3" y1="398.0" x2="1017.3" y2="497.2" stroke="#0072B2" stroke-width="5" opacity=".28"/><circle cx="1017.3" cy="447.5" r="5.5" fill="#E69F00"/><line x1="1044.3" y1="386.5" x2="1044.3" y2="491.9" stroke="#0072B2" stroke-width="5" opacity=".28"/><circle cx="1044.3" cy="437.2" r="5.5" fill="#E69F00"/><line x1="1071.4" y1="478.5" x2="1071.4" y2="582.7" stroke="#0072B2" stroke-width="5" opacity=".28"/><circle cx="1071.4" cy="531.3" r="5.5" fill="#E69F00"/><line x1="1098.5" y1="372.2" x2="1098.5" y2="478.5" stroke="#0072B2" stroke-width="5" opacity=".28"/><circle cx="1098.5" cy="426.9" r="5.5" fill="#E69F00"/><line x1="1125.6" y1="248.2" x2="1125.6" y2="348.1" stroke="#0072B2" stroke-width="5" opacity=".28"/><circle cx="1125.6" cy="299.3" r="5.5" fill="#E69F00"/><line x1="1152.6" y1="255.6" x2="1152.6" y2="348.5" stroke="#0072B2" stroke-width="5" opacity=".28"/><circle cx="1152.6" cy="299.3" r="5.5" fill="#E69F00"/><line x1="1179.7" y1="504.8" x2="1179.7" y2="608.8" stroke="#0072B2" stroke-width="5" opacity=".28"/><circle cx="1179.7" cy="556.4" r="5.5" fill="#E69F00"/><line x1="1206.8" y1="396.6" x2="1206.8" y2="493.1" stroke="#0072B2" stroke-width="5" opacity=".28"/><circle cx="1206.8" cy="443.4" r="5.5" fill="#E69F00"/><line x1="1233.9" y1="294.5" x2="1233.9" y2="393.9" stroke="#0072B2" stroke-width="5" opacity=".28"/><circle cx="1233.9" cy="346.2" r="5.5" fill="#E69F00"/><line x1="1260.9" y1="330.6" x2="1260.9" y2="426.7" stroke="#0072B2" stroke-width="5" opacity=".28"/><circle cx="1260.9" cy="379.1" r="5.5" fill="#E69F00"/><line x1="1288.0" y1="365.3" x2="1288.0" y2="472.6" stroke="#0072B2" stroke-width="5" opacity=".28"/><circle cx="1288.0" cy="420.0" r="5.5" fill="#E69F00"/><text x="168" y="744" class="label">Blue ranges = ROI intervals; orange dots = expected ROI. Wider intervals signal decisions that need more caution.</text>
</svg>